<?xml version="1.0" encoding="utf-8"?>
<svg xmlns="http://www.w3.org/2000/svg" viewBox="0 0 49.0998 45.0001" width="49.0998px" height="45.0001px"><defs><linearGradient id="paint0_linear" x1="41.693" y1="34.2061" x2="41.693" y2="44.7309" gradientUnits="userSpaceOnUse"><stop stop-color="#0295DB"/><stop offset="0.7865" stop-color="#0075BA" stop-opacity="0.614583"/></linearGradient><linearGradient id="paint1_linear" x1="15.9431" y1="39.0693" x2="15.9431" y2="45.0001" gradientUnits="userSpaceOnUse"><stop stop-color="#0295DB"/><stop offset="0.7865" stop-color="#0075BA" stop-opacity="0.614583"/></linearGradient><linearGradient id="paint2_linear" x1="43.763" y1="1.05957" x2="43.763" y2="28.4442" gradientUnits="userSpaceOnUse"><stop stop-color="#0295DB"/><stop offset="0.7865" stop-color="#0075BA" stop-opacity="0.614583"/></linearGradient></defs><g id="object-0" transform="matrix(1, 0, 0, 1, -5.684341886080802e-14, 0)"><path fill-rule="evenodd" clip-rule="evenodd" d="M40.5604 0.86737C35.5995 6.45182 26.6162 16.5637 26.6162 16.5637L7.92379 6.62067L17.9067 26.3673C17.9067 26.3673 4.70905 41.2236 3.59883 42.4731C2.53593 42.1038 1.58097 39.4707 1.36297 38.4608C-0.219941 31.131 -0.317245 21.3392 0.523926 13.1577C0.888682 9.60802 1.15294 5.48963 2.81242 3.3905C5.4359 0.0718891 13.2999 0.236453 18.7569 0.0831458C25.9834 -0.119477 33.7443 0.0139968 40.5604 0.86737Z" fill="#FF0013"/><path fill-rule="evenodd" clip-rule="evenodd" d="M48.2727 34.2061C48.2881 38.2178 46.9668 41.2812 44.565 42.8561C42.4371 44.2514 39.2202 44.9091 35.1133 44.6894C35.486 41.8521 36.3277 36.63 36.3277 36.63C36.3277 36.63 44.4278 34.986 48.2727 34.2061Z" fill="#004E9A"/><path fill-rule="evenodd" clip-rule="evenodd" d="M48.2727 34.2061C48.2881 38.2178 46.9668 41.2812 44.565 42.8561C42.4371 44.2514 39.2202 44.9091 35.1133 44.6894C35.486 41.8521 36.3277 36.63 36.3277 36.63C36.3277 36.63 44.4278 34.986 48.2727 34.2061Z" fill="url(#paint0_linear)"/><path fill-rule="evenodd" clip-rule="evenodd" d="M27.3189 45.0001C19.3575 44.925 10.4933 45.2043 4.56738 43.0773C8.51908 42.1376 24.3221 39.0693 24.3221 39.0693C24.3221 39.0693 26.348 43.0607 27.3189 45.0001Z" fill="#004E9A"/><path fill-rule="evenodd" clip-rule="evenodd" d="M27.3189 45.0001C19.3575 44.925 10.4933 45.2043 4.56738 43.0773C8.51908 42.1376 24.3221 39.0693 24.3221 39.0693C24.3221 39.0693 26.348 43.0607 27.3189 45.0001Z" fill="url(#paint1_linear)"/><path fill-rule="evenodd" clip-rule="evenodd" d="M38.4263 22.8442C38.4263 22.8442 40.6962 7.93051 41.7176 1.05957C45.2434 1.57685 46.8656 2.83279 47.6356 5.46206C49.4397 11.6233 49.1483 21.1803 48.9542 28.4442C45.7299 26.7294 38.4263 22.8442 38.4263 22.8442Z" fill="#004E9A"/><path fill-rule="evenodd" clip-rule="evenodd" d="M38.4263 22.8442C38.4263 22.8442 40.6962 7.93051 41.7176 1.05957C45.2434 1.57685 46.8656 2.83279 47.6356 5.46206C49.4397 11.6233 49.1483 21.1803 48.9542 28.4442C45.7299 26.7294 38.4263 22.8442 38.4263 22.8442Z" fill="url(#paint2_linear)"/></g></svg>